<mxfile host="app.diagrams.net" modified="2023-06-04T19:55:58.138Z" agent="Mozilla/5.0 (Windows NT 10.0; Win64; x64) AppleWebKit/537.36 (KHTML, like Gecko) Chrome/114.0.0.0 Safari/537.36" etag="jfomR-5KaQk0IWmgK9fV" version="21.3.7" type="github">
  <diagram name="Page-1" id="QRR8oCzJnMH8YptgM_IR">
    <mxGraphModel dx="989" dy="488" grid="1" gridSize="10" guides="1" tooltips="1" connect="1" arrows="1" fold="1" page="1" pageScale="1" pageWidth="827" pageHeight="1169" math="0" shadow="0">
      <root>
        <mxCell id="0" />
        <mxCell id="1" parent="0" />
        <mxCell id="pLqJlmhRDePmKQdQ49mO-1" value="Internaute" style="shape=umlActor;verticalLabelPosition=bottom;verticalAlign=top;html=1;outlineConnect=0;rounded=1;" parent="1" vertex="1">
          <mxGeometry x="110" y="140" width="30" height="60" as="geometry" />
        </mxCell>
        <mxCell id="tiJtPak5weoZCDcznMaC-1" value="Membre" style="shape=umlActor;verticalLabelPosition=bottom;verticalAlign=top;html=1;outlineConnect=0;rounded=1;" vertex="1" parent="1">
          <mxGeometry x="110" y="350" width="30" height="60" as="geometry" />
        </mxCell>
        <mxCell id="tiJtPak5weoZCDcznMaC-2" value="Admin" style="shape=umlActor;verticalLabelPosition=bottom;verticalAlign=top;html=1;outlineConnect=0;rounded=1;" vertex="1" parent="1">
          <mxGeometry x="110" y="590" width="30" height="60" as="geometry" />
        </mxCell>
        <mxCell id="tiJtPak5weoZCDcznMaC-3" value="Cars-Services" style="swimlane;whiteSpace=wrap;html=1;rounded=1;" vertex="1" parent="1">
          <mxGeometry x="230" y="30" width="480" height="780" as="geometry">
            <mxRectangle x="230" y="40" width="120" height="30" as="alternateBounds" />
          </mxGeometry>
        </mxCell>
        <mxCell id="tiJtPak5weoZCDcznMaC-4" value="S&#39;inscrire" style="ellipse;whiteSpace=wrap;html=1;rounded=1;" vertex="1" parent="tiJtPak5weoZCDcznMaC-3">
          <mxGeometry x="175" y="50" width="80" height="40" as="geometry" />
        </mxCell>
        <mxCell id="tiJtPak5weoZCDcznMaC-5" value="Consulter les véhicules d&#39;occasions" style="ellipse;whiteSpace=wrap;html=1;rounded=1;" vertex="1" parent="tiJtPak5weoZCDcznMaC-3">
          <mxGeometry x="160" y="110" width="110" height="60" as="geometry" />
        </mxCell>
        <mxCell id="tiJtPak5weoZCDcznMaC-7" value="Consulter les servcices" style="ellipse;whiteSpace=wrap;html=1;rounded=1;" vertex="1" parent="tiJtPak5weoZCDcznMaC-3">
          <mxGeometry x="160" y="340" width="110" height="60" as="geometry" />
        </mxCell>
        <mxCell id="tiJtPak5weoZCDcznMaC-9" value="Filtrer les véhicules" style="ellipse;whiteSpace=wrap;html=1;rounded=1;" vertex="1" parent="tiJtPak5weoZCDcznMaC-3">
          <mxGeometry x="350" y="50" width="80" height="40" as="geometry" />
        </mxCell>
        <mxCell id="tiJtPak5weoZCDcznMaC-15" value="Trier les véhicules" style="ellipse;whiteSpace=wrap;html=1;rounded=1;" vertex="1" parent="tiJtPak5weoZCDcznMaC-3">
          <mxGeometry x="320" y="110" width="80" height="40" as="geometry" />
        </mxCell>
        <mxCell id="tiJtPak5weoZCDcznMaC-16" value="" style="endArrow=none;dashed=1;html=1;dashPattern=1 3;strokeWidth=2;rounded=1;entryX=0;entryY=0.5;entryDx=0;entryDy=0;exitX=1;exitY=0.5;exitDx=0;exitDy=0;" edge="1" parent="tiJtPak5weoZCDcznMaC-3" source="tiJtPak5weoZCDcznMaC-5" target="tiJtPak5weoZCDcznMaC-15">
          <mxGeometry width="50" height="50" relative="1" as="geometry">
            <mxPoint x="264" y="129" as="sourcePoint" />
            <mxPoint x="342" y="104" as="targetPoint" />
          </mxGeometry>
        </mxCell>
        <mxCell id="tiJtPak5weoZCDcznMaC-18" value="&lt;font style=&quot;font-size: 7px;&quot;&gt;&amp;lt;&amp;lt;extend&amp;gt;&amp;gt;&lt;/font&gt;" style="text;html=1;align=center;verticalAlign=middle;resizable=0;points=[];autosize=1;strokeColor=none;fillColor=none;rotation=-15;rounded=1;" vertex="1" parent="tiJtPak5weoZCDcznMaC-3">
          <mxGeometry x="270" y="110" width="60" height="30" as="geometry" />
        </mxCell>
        <mxCell id="tiJtPak5weoZCDcznMaC-20" value="&lt;font style=&quot;font-size: 7px;&quot;&gt;&amp;lt;&amp;lt;extend&amp;gt;&amp;gt;&lt;/font&gt;" style="text;html=1;align=center;verticalAlign=middle;resizable=0;points=[];autosize=1;strokeColor=none;fillColor=none;rotation=-40;rounded=1;" vertex="1" parent="tiJtPak5weoZCDcznMaC-3">
          <mxGeometry x="270" y="80" width="60" height="30" as="geometry" />
        </mxCell>
        <mxCell id="tiJtPak5weoZCDcznMaC-26" value="Marquer en favori" style="ellipse;whiteSpace=wrap;html=1;rounded=1;" vertex="1" parent="tiJtPak5weoZCDcznMaC-3">
          <mxGeometry x="320" y="160" width="80" height="40" as="geometry" />
        </mxCell>
        <mxCell id="tiJtPak5weoZCDcznMaC-29" value="" style="endArrow=none;dashed=1;html=1;dashPattern=1 3;strokeWidth=2;rounded=1;entryX=0;entryY=0.25;entryDx=0;entryDy=0;exitX=1;exitY=0.5;exitDx=0;exitDy=0;entryPerimeter=0;" edge="1" parent="tiJtPak5weoZCDcznMaC-3" source="tiJtPak5weoZCDcznMaC-5" target="tiJtPak5weoZCDcznMaC-26">
          <mxGeometry width="50" height="50" relative="1" as="geometry">
            <mxPoint x="280" y="150" as="sourcePoint" />
            <mxPoint x="330" y="140" as="targetPoint" />
          </mxGeometry>
        </mxCell>
        <mxCell id="tiJtPak5weoZCDcznMaC-30" value="&lt;font style=&quot;font-size: 7px;&quot;&gt;&amp;lt;&amp;lt;extend&amp;gt;&amp;gt;&lt;/font&gt;" style="text;html=1;align=center;verticalAlign=middle;resizable=0;points=[];autosize=1;strokeColor=none;fillColor=none;rotation=30;rounded=1;" vertex="1" parent="tiJtPak5weoZCDcznMaC-3">
          <mxGeometry x="280" y="140" width="60" height="30" as="geometry" />
        </mxCell>
        <mxCell id="tiJtPak5weoZCDcznMaC-32" value="Réserver un véhicule" style="ellipse;whiteSpace=wrap;html=1;rounded=1;" vertex="1" parent="tiJtPak5weoZCDcznMaC-3">
          <mxGeometry x="160" y="190" width="110" height="60" as="geometry" />
        </mxCell>
        <mxCell id="tiJtPak5weoZCDcznMaC-36" value="" style="endArrow=none;dashed=1;html=1;dashPattern=1 3;strokeWidth=2;rounded=1;entryX=-0.024;entryY=0.511;entryDx=0;entryDy=0;entryPerimeter=0;exitX=1;exitY=0.5;exitDx=0;exitDy=0;" edge="1" parent="tiJtPak5weoZCDcznMaC-3" source="tiJtPak5weoZCDcznMaC-5" target="tiJtPak5weoZCDcznMaC-9">
          <mxGeometry width="50" height="50" relative="1" as="geometry">
            <mxPoint x="220" y="120" as="sourcePoint" />
            <mxPoint x="270" y="70" as="targetPoint" />
          </mxGeometry>
        </mxCell>
        <mxCell id="tiJtPak5weoZCDcznMaC-23" value="" style="endArrow=none;html=1;rounded=1;exitX=1;exitY=0.3333333333333333;exitDx=0;exitDy=0;exitPerimeter=0;entryX=0;entryY=0.5;entryDx=0;entryDy=0;" edge="1" parent="1" source="pLqJlmhRDePmKQdQ49mO-1" target="tiJtPak5weoZCDcznMaC-4">
          <mxGeometry width="50" height="50" relative="1" as="geometry">
            <mxPoint x="180" y="130" as="sourcePoint" />
            <mxPoint x="230" y="80" as="targetPoint" />
          </mxGeometry>
        </mxCell>
        <mxCell id="tiJtPak5weoZCDcznMaC-24" value="" style="endArrow=none;html=1;rounded=1;exitX=1;exitY=0.3333333333333333;exitDx=0;exitDy=0;exitPerimeter=0;" edge="1" parent="1" source="pLqJlmhRDePmKQdQ49mO-1" target="tiJtPak5weoZCDcznMaC-5">
          <mxGeometry width="50" height="50" relative="1" as="geometry">
            <mxPoint x="150" y="170" as="sourcePoint" />
            <mxPoint x="415" y="120" as="targetPoint" />
          </mxGeometry>
        </mxCell>
        <mxCell id="tiJtPak5weoZCDcznMaC-25" value="" style="endArrow=none;html=1;rounded=1;entryX=0;entryY=0.5;entryDx=0;entryDy=0;" edge="1" parent="1" target="tiJtPak5weoZCDcznMaC-7">
          <mxGeometry width="50" height="50" relative="1" as="geometry">
            <mxPoint x="150" y="160" as="sourcePoint" />
            <mxPoint x="425" y="130" as="targetPoint" />
          </mxGeometry>
        </mxCell>
        <mxCell id="tiJtPak5weoZCDcznMaC-33" value="" style="endArrow=none;html=1;rounded=1;entryX=0;entryY=0.5;entryDx=0;entryDy=0;exitX=1;exitY=0.3333333333333333;exitDx=0;exitDy=0;exitPerimeter=0;" edge="1" parent="1" source="pLqJlmhRDePmKQdQ49mO-1" target="tiJtPak5weoZCDcznMaC-32">
          <mxGeometry width="50" height="50" relative="1" as="geometry">
            <mxPoint x="160" y="170" as="sourcePoint" />
            <mxPoint x="400" y="410" as="targetPoint" />
          </mxGeometry>
        </mxCell>
        <mxCell id="tiJtPak5weoZCDcznMaC-34" value="Payment service" style="rounded=1;whiteSpace=wrap;html=1;" vertex="1" parent="1">
          <mxGeometry x="720" y="220" width="120" height="60" as="geometry" />
        </mxCell>
        <mxCell id="tiJtPak5weoZCDcznMaC-35" value="" style="endArrow=classic;html=1;rounded=1;exitX=1;exitY=0.5;exitDx=0;exitDy=0;entryX=0.028;entryY=0.597;entryDx=0;entryDy=0;entryPerimeter=0;" edge="1" parent="1" source="tiJtPak5weoZCDcznMaC-32" target="tiJtPak5weoZCDcznMaC-34">
          <mxGeometry width="50" height="50" relative="1" as="geometry">
            <mxPoint x="480" y="320" as="sourcePoint" />
            <mxPoint x="530" y="270" as="targetPoint" />
          </mxGeometry>
        </mxCell>
      </root>
    </mxGraphModel>
  </diagram>
</mxfile>
